<svg height="512" viewBox="0 0 192 192" width="512" xmlns="http://www.w3.org/2000/svg"><linearGradient id="a" gradientUnits="userSpaceOnUse" x1="36.343" x2="155.657" y1="175.657" y2="56.343"><stop offset="0" stop-color="#34cdfa"/><stop offset="1" stop-color="#e8d9f1"/></linearGradient><path d="M180.521 81.4a8 8 0 00-8.959-.056L131.1 108.316l-27.945-55.894a8 8 0 00-14.31 0L60.9 108.316 20.437 81.344A8 8 0 008.19 89.735l16 72A8 8 0 0032 168h128a8 8 0 007.81-6.265l16-72a8 8 0 00-3.289-8.335z" fill="url(#a)"/><path d="M24 160v24a8 8 0 008 8h128a8 8 0 008-8v-24" fill="#99e6fd"/><path d="M40 184v-24H24v24a8 8 0 008 8h16a8 8 0 01-8-8z" fill="#67d9fb"/><g fill="#ccf2fe"><circle cx="96" cy="32" r="8"/><circle cx="184" cy="72" r="8"/><circle cx="8" cy="72" r="8"/></g></svg>